<?xml version="1.0" encoding="UTF-8"?>
<!DOCTYPE svg PUBLIC "-//W3C//DTD SVG 1.1//EN" "http://www.w3.org/Graphics/SVG/1.1/DTD/svg11.dtd">
<!-- Creator: CorelDRAW -->
<svg xmlns="http://www.w3.org/2000/svg" xml:space="preserve" width="224.205mm" height="70.4884mm" version="1.1" style="shape-rendering:geometricPrecision; text-rendering:geometricPrecision; image-rendering:optimizeQuality; fill-rule:evenodd; clip-rule:evenodd"
viewBox="0 0 22416.5 7047.59"
 xmlns:xlink="http://www.w3.org/1999/xlink"
 xmlns:xodm="http://www.corel.com/coreldraw/odm/2003">
 <defs>
  <style type="text/css">
   <![CDATA[
    .fil0 {fill:#1D1819}
   ]]>
  </style>
 </defs>
 <g id="Layer_x0020_1">
  <metadata id="CorelCorpID_0Corel-Layer"/>
  <g id="_2354452509744">
   <path class="fil0" d="M13392.15 1913.81c-256.28,83.6 -244.21,132.3 -307.7,401.9 -46.99,199.5 -98.64,405.05 -139.15,599.89l-197.89 859.93 -52.24 422.83 1.24 -2.78c22.96,169.34 267.61,516.52 953.74,317.43 247.31,-121.53 369.86,-227.47 440.2,-254.51 57.21,184.3 201.33,300.76 464.03,295.23 86.65,-1.83 154.83,-19.14 211.72,-44.98l92.42 -333.38c-98.88,-12.75 -173.58,-75 -196.07,-193.8 -25.82,-136.29 53.39,-373.83 86.37,-509.49 34.31,-141 352.53,-1381.44 316.23,-1471.41 -53.12,-131.75 -333.33,-113.57 -469.35,-52.85 -180.57,80.65 -164.71,183.86 -217.02,389.61l-338.19 1474.41c-44.74,210.41 -107.18,248.57 -283.64,324.64 -185.8,80.08 -371,26.57 -400.81,-148.15 -42.06,-246.71 453.15,-1729.14 409.89,-2012.86 -115.74,-84.99 -188.09,-82.03 -373.8,-61.66zm-948.88 2255.34c-107.23,-21.98 -184,-105.05 -188.9,-254.15 -6.76,-205.97 451.35,-1633.21 368.27,-1779.29 -84.99,-134.85 -348.77,-117.63 -493.17,-34.61 -145.75,83.84 -150.05,253.74 -194.16,442.28 -80.26,342.76 -162.94,679.16 -241.69,1027.33 -89.35,395.13 -171.87,714.28 153.5,913.94 172.44,105.81 350.45,101.88 500.91,40.75l-3.24 -1.06 98.46 -355.18zm2594.05 130.73l0.3 -0.24c-16.83,87.61 -2.95,245.63 279.57,245.39 448.44,-0.57 408.81,-394.29 558.7,-1012.46 69.86,-288.02 137.98,-571.53 205.12,-863.49 43.42,-188.75 89.45,-225.13 226.94,-307.01 109.88,-65.44 257.37,-116.73 396.58,-86.17 294.12,64.57 76.8,611.25 26.8,811.91 -58.44,234.47 -174.87,618.49 -197.81,851.77 -49.85,506.32 447.91,714.68 794.71,561.95l92.02 -331.94c-463.19,36.19 -71.86,-908.3 68.99,-1544.28 165.01,-745.05 -350.45,-845.01 -853.48,-721.76 -192.6,47.17 -254.15,103.8 -415.45,166.18 45.79,-331.25 384.68,-1456.08 343.79,-1665.83 -126.32,-127.27 -341.84,-131.21 -518.06,-34.58 -142.5,78.13 -156.41,294.3 -197.6,488.73 -83.83,395.58 -621.62,2744.25 -757.27,3207.04l-53.85 234.8zm2589.76 -158.42l0.01 -0.04c82.06,240.55 449.18,428.66 692.02,425.3 377.13,-5.2 539.83,-239.32 712.38,-378.31 54.58,304.06 394.08,473.26 669.3,358.26l103.09 -371.85c-383.99,-90.96 169.77,-1201.82 72.38,-1429.78 -52.58,-104.17 -187.73,-113.96 -303.2,-97.16 -389.81,56.69 -364.58,391.01 -442.12,730.14 -51.89,226.91 -165.16,385.37 -299.71,488.42 -159.36,122.05 -426.35,163.87 -560.05,-32.32 -257.04,-377.11 29.89,-979.17 357.21,-1264.48 285.47,-248.84 581.07,-253.82 1064.53,-145.9 109.64,-105.94 171.14,-254.33 94.1,-395.49 -666.57,-302.42 -1492.97,-221.2 -2015.23,626.97 -267.38,434.31 -385.31,990.42 -160.18,1462.8l15.47 0 0 23.46zm2341.71 218.22c97.5,316.94 535.8,208.53 637.74,10.54l413.52 -1724.99c100.23,-421.34 556.15,-409.92 646.88,-348.41 230.79,156.32 -289.67,1370.84 -241.63,1766.37 50.62,417.04 523.89,612.41 863.51,443.63l91.61 -330.47c-341.64,40.91 -299.61,-313.27 -210.16,-659.93 45.01,-174.54 204.25,-903 243.35,-1036.11 21.27,-379.27 -69.89,-571.23 -431.16,-627.81 -287.36,-45.01 -719.6,36.44 -871.08,205.42 7.57,-66.88 29.59,-170.33 -179.08,-198.33 -227.66,-27.43 -374.01,44.98 -461.42,189.69l-389.42 1816.93 0.53 0 -8.14 35.48 -15.53 72.45c-12.98,58.12 -16.33,96.04 -30.64,128.9l-58.87 256.65z"/>
   <path class="fil0" d="M7950.73 3507.3c18.84,-116.22 219.93,-998.21 247.37,-1049.89 61.98,-116.88 373.35,-193.14 474.88,-79.11 104.86,117.78 -2.38,381.43 -33.05,519.07 -73.52,329.84 -193.86,691.06 -247.55,1023.82 -49.44,462.64 175.13,651.25 631.24,608.33l114.26 -379.1c-46.17,-39.47 -80.06,-89.92 -101.39,-151.55 -32.47,-103.64 -1.84,-176.19 38.08,-335.71 76.08,-303.92 148.7,-614.41 224.23,-918.93 89.9,-362.54 110.36,-658.15 -253.37,-786.09 -350.6,-123.28 -689.61,25.66 -916.16,171.14 -177.51,-98.46 -172.97,-223.21 -535.47,-210.11 -217.35,7.85 -412.05,103.12 -558.4,194.44 -3.1,-6.17 -5.74,-23.23 -7.06,-19.45l-23.26 -55.85c-26.63,-47.86 -6.53,-27.56 -45.82,-58.11 -107.17,-83.35 -378.7,-36.17 -468.72,41.4 -87.55,75.48 -143.83,472.29 -184.88,627.12 -117.72,444.1 -228.22,879.2 -336.63,1319.5 -3.82,15.52 -7.29,29.97 -10.65,43.44l-67.91 286.18c-5.71,390.77 534.12,256.01 620.31,34.89 71.55,-183.56 349.98,-1407.56 436.93,-1728.66 83.62,-308.88 596.61,-430.46 593.31,-88.51 -1.71,177.36 -352.59,1428.2 -415.18,1748.1 -72.29,369.65 478.75,335.94 603.44,92.39 88.66,-173.19 143.58,-637.55 221.44,-848.74zm-2235.86 667.26c-423.77,-11.25 -181.43,-578.07 -124.82,-813.8 67.25,-279.88 322.63,-1122.99 313.08,-1340.46 -209.24,-163.09 -474.97,-95.55 -585.99,21.03 -134.73,141.48 -425.51,1821.3 -565.1,1955.65 -103.36,99.51 -434.25,288.84 -591.78,96.09 -126.32,-154.52 9.31,-499.84 54.29,-683.43 53.45,-218.22 330.41,-1222.32 292.86,-1365.55 -104.95,-149.9 -361.13,-117.75 -515.32,-27.62 -140.85,82.39 -146.38,287.09 -195.9,489.41 -92.06,375.99 -171.32,734.54 -260.26,1115.85 -96.05,411.75 -122.89,772.11 273.33,899.09 434.94,139.38 827.64,-77.19 1038.39,-271.86 81.91,87.43 142.5,308.88 508.74,305.63 116.58,-1.04 202.46,-27.88 271.49,-66.27l86.98 -313.77z"/>
   <path class="fil0" d="M1159.13 2874.28c-209.87,-109.82 -562.08,-6.45 -733.08,89.59 -578.97,325.21 -597.28,1196.06 127.2,1689.08 807.77,549.69 1968.93,399.03 2529.74,-396.73 707.6,-1194.79 -181.85,-1703.22 -558.65,-2465.46 -462.92,-936.49 488.07,-1658.09 955.52,-1141.5 193.09,213.36 149.39,468.48 50.83,720.16 422.07,-112.75 668.09,-642.69 348.89,-1050.01 -472.08,-602.42 -1812.18,-332.62 -2106.78,640.06 -334.03,1102.86 969.85,1585.52 903.2,2444.6 -78.07,1005.66 -1508.84,1404.55 -1944.5,532.4 -225.34,-451.16 7.92,-940.96 427.63,-1062.19z"/>
   <path class="fil0" d="M9924.4 3967.99c-191.48,-357.76 77.74,-810.68 234.93,-1013.75 151.04,-195.12 483.56,-435.39 798.77,-532.9 96.87,601.33 -206.5,2139.08 -980.58,1772.91 80.2,-262.69 393.84,-710.28 536.26,-940.7 -150.89,83.59 -367.55,368.36 -463.04,532.11l-126.35 182.33zm431.91 -1837.49l-48.76 -104.07c-71.88,-129.92 -266.48,-100.96 -376.99,-63.28 -195.51,66.67 -183.61,210.26 -231.74,430.61 -314.61,1439.74 -698.36,2902.79 -947.59,4346.11 -39.98,231.47 129.17,335.67 357.16,301.3 200.61,-30.22 250.56,-156.26 296.26,-363.8 120.27,-546.44 361.21,-1690.86 492.48,-2172.7 491.93,113.87 801.05,126.62 1134.62,-194.94 262.9,-253.43 368.72,-588.18 473.53,-1025.83 95.12,-397.39 238.44,-932.41 -52.76,-1202.29 -272.28,-252.36 -851.26,-193.44 -1096.19,48.88z"/>
   <path class="fil0" d="M13048.73 685.96l-686.01 349.05c-765.12,508.43 205.54,1168.09 526.49,553.71 70.1,-134.13 74.4,-281.38 80.56,-447.23 7.79,-208.52 41.97,-283.21 78.97,-455.53zm-612.36 466.53c-117.58,193.96 -137.57,344.12 15.51,416.63 29.18,81.61 -51.55,137.38 -122.08,96.89 -157.83,-112.69 -121.54,-404.74 106.57,-513.52z"/>
  </g>
 </g>
</svg>
